<svg xmlns="http://www.w3.org/2000/svg" width="641.968" height="142.225" viewBox="0 0 641.968 142.225">
  <path fill="#1E3C7A" d="M6.26 75.063L73.734 7.588l67.16 67.16-67.474 67.476z"/>
  <g fill="#000">
    <path d="M156.007 14.85h13.832v34.036h.27c1.53-2.26 3.36-4 5.49-5.22 2.12-1.222 4.54-1.832 7.25-1.832 3.34 0 5.94.59 7.79 1.763 1.85 1.176 3.36 2.667 4.54 4.475.9 1.447 1.49 3.345 1.76 5.695.27 2.352.4 6.013.4 10.984v26.18c0 3.8-.19 6.83-.54 9.09-.36 2.26-.95 4.16-1.77 5.7-2.35 4.34-6.38 6.51-12.07 6.51-3.44 0-6.06-.67-7.87-2.03-1.81-1.35-3.57-3.03-5.29-5.02v6.24H156V14.85zm27.528 48.95c0-2.17-.475-4.068-1.424-5.695-.94-1.627-2.73-2.44-5.35-2.44-1.99 0-3.64.7-4.95 2.1-1.31 1.404-1.96 3.188-1.96 5.357v26.714c0 2.532.63 4.59 1.9 6.17 1.27 1.583 2.94 2.373 5.02 2.373 2.35 0 4.07-.86 5.15-2.58 1.09-1.72 1.63-3.98 1.63-6.78V63.8zm66.58 47.598h-13.832v-6.645h-.27c-1.448 2.17-3.188 3.956-5.222 5.357-2.03 1.4-4.63 2.102-7.79 2.102-1.72 0-3.43-.295-5.15-.882-1.71-.587-3.25-1.56-4.61-2.915-1.35-1.356-2.44-3.096-3.25-5.22-.81-2.124-1.22-4.724-1.22-7.8v-52.75h13.83v47.597c0 2.533.59 4.52 1.77 5.967 1.18 1.44 2.85 2.17 5.02 2.17 2.62 0 4.43-.82 5.43-2.45 1-1.63 1.49-3.98 1.49-7.05V42.64h13.84v68.75zm36.475-49.494c-.09-2.35-.836-4.113-2.237-5.29-1.402-1.173-3.006-1.762-4.814-1.762-2.17 0-3.85.702-5.02 2.102-1.18 1.403-1.77 3.006-1.77 4.814 0 1.267.31 2.51.95 3.73.63 1.22 2.26 2.328 4.88 3.32l8.13 3.255c5.15 1.99 8.7 4.702 10.64 8.136 1.94 3.43 2.91 7.18 2.91 11.25 0 2.89-.52 5.58-1.56 8.07s-2.47 4.68-4.27 6.57c-1.81 1.89-3.98 3.39-6.51 4.47s-5.29 1.62-8.27 1.62c-2.71 0-5.29-.46-7.73-1.36-2.44-.9-4.59-2.21-6.44-3.93-1.86-1.72-3.37-3.87-4.55-6.44-1.18-2.58-1.81-5.58-1.9-9.02h13.01c.27 1.9.93 3.66 1.97 5.29s2.87 2.44 5.49 2.44c1.98 0 3.77-.66 5.35-1.97 1.58-1.31 2.37-3.14 2.37-5.49 0-1.9-.495-3.53-1.49-4.88-.99-1.36-2.8-2.53-5.42-3.53l-6.647-2.44c-4.34-1.63-7.756-4.05-10.24-7.26-2.49-3.21-3.73-7.12-3.73-11.73 0-2.89.54-5.58 1.626-8.07 1.085-2.49 2.553-4.61 4.41-6.38 1.85-1.768 4-3.14 6.44-4.14 2.44-.994 5.062-1.49 7.87-1.49 2.8 0 5.4.52 7.792 1.56s4.45 2.44 6.17 4.203c1.712 1.76 3.07 3.88 4.064 6.37 1 2.49 1.496 5.13 1.496 7.93h-13.02zm22.645-40.14h13.832V42.65h8.543v10.848h-8.543V91.6c0 1.628.157 2.895.475 3.797.316.905.813 1.583 1.492 2.034.678.46 1.56.73 2.644.82 1.085.09 2.395.14 3.933.14v13.02h-5.69c-3.16 0-5.81-.49-7.93-1.49-2.12-.99-3.82-2.26-5.08-3.8-1.26-1.53-2.19-3.27-2.78-5.22-.59-1.94-.88-3.81-.88-5.63V53.5h-6.91V42.65h6.92V21.77zm53.835 82.584h-.272c-1.81 2.53-3.64 4.475-5.492 5.83-1.854 1.357-4.454 2.035-7.797 2.035-1.63 0-3.31-.25-5.02-.746-1.72-.496-3.32-1.4-4.82-2.712-1.49-1.31-2.71-3.163-3.66-5.56-.95-2.395-1.43-5.492-1.43-9.29 0-3.886.31-7.298.95-10.237.63-2.937 1.78-5.377 3.45-7.322 1.67-1.943 3.91-3.39 6.71-4.34 2.8-.95 6.37-1.424 10.71-1.424.99 0 1.99.047 2.98.136.99.09 2.21.182 3.66.27v-7.186c0-2.35-.5-4.293-1.49-5.83-1-1.537-2.81-2.306-5.43-2.306-1.81 0-3.46.59-4.95 1.763-1.49 1.17-2.47 2.89-2.92 5.15h-13.42c.45-6.24 2.53-11.21 6.23-14.92 1.81-1.81 3.98-3.23 6.51-4.27 2.53-1.04 5.38-1.56 8.54-1.56 2.89 0 5.6.45 8.14 1.35 2.53.9 4.72 2.26 6.57 4.07 1.85 1.81 3.32 4.06 4.41 6.78 1.084 2.71 1.63 5.87 1.63 9.49v47.87h-13.83v-7.06zm0-22.51c-1.54-.27-2.804-.407-3.798-.407-2.983 0-5.54.71-7.662 2.11-2.125 1.41-3.187 3.96-3.187 7.66 0 2.63.63 4.75 1.898 6.38 1.27 1.63 3.03 2.44 5.29 2.44 2.35 0 4.18-.76 5.5-2.3 1.31-1.53 1.97-3.7 1.97-6.51v-9.36zm49.088-19.934c-.09-2.35-.837-4.113-2.238-5.29-1.402-1.173-3.006-1.762-4.814-1.762-2.17 0-3.843.702-5.017 2.102-1.18 1.403-1.77 3.006-1.77 4.814 0 1.267.31 2.51.95 3.73.63 1.22 2.25 2.328 4.88 3.32l8.13 3.255c5.15 1.99 8.7 4.702 10.64 8.136 1.94 3.43 2.91 7.18 2.91 11.25 0 2.89-.52 5.58-1.56 8.07s-2.46 4.68-4.27 6.57c-1.81 1.89-3.98 3.39-6.51 4.47s-5.29 1.62-8.27 1.62c-2.71 0-5.29-.46-7.73-1.36-2.44-.9-4.59-2.21-6.44-3.93-1.86-1.72-3.37-3.87-4.54-6.44-1.18-2.58-1.81-5.58-1.9-9.02h13.02c.27 1.9.92 3.66 1.96 5.29s2.87 2.44 5.49 2.44c1.99 0 3.77-.66 5.35-1.97 1.58-1.31 2.37-3.14 2.37-5.49 0-1.9-.5-3.53-1.49-4.88-1-1.36-2.81-2.53-5.43-3.53l-6.65-2.44c-4.34-1.63-7.75-4.05-10.24-7.26s-3.73-7.12-3.73-11.73c0-2.89.54-5.58 1.63-8.07 1.08-2.49 2.55-4.61 4.403-6.38 1.85-1.768 4-3.14 6.44-4.14 2.44-.994 5.06-1.49 7.86-1.49 2.8 0 5.4.52 7.795 1.56 2.394 1.04 4.45 2.44 6.17 4.203 1.715 1.76 3.07 3.88 4.07 6.37.993 2.49 1.49 5.13 1.49 7.93h-13.01zm22.644-47.054h13.832v34.44h.27c1.446-2.17 3.188-3.954 5.222-5.356 2.034-1.4 4.632-2.102 7.798-2.102 1.716 0 3.435.294 5.152.88 1.717.59 3.255 1.56 4.61 2.917 1.356 1.35 2.44 3.1 3.255 5.22.82 2.12 1.23 4.72 1.23 7.79v52.75h-13.84V63.8c0-2.53-.59-4.52-1.76-5.967-1.17-1.445-2.85-2.17-5.02-2.17-2.63 0-4.43.814-5.43 2.442-.99 1.627-1.49 3.98-1.49 7.05v46.24H434.8V14.85zm78.92 89.498h-.27c-1.81 2.53-3.64 4.475-5.492 5.83-1.854 1.357-4.453 2.035-7.797 2.035-1.627 0-3.3-.25-5.018-.746s-3.322-1.4-4.813-2.712c-1.492-1.31-2.713-3.163-3.662-5.56-.95-2.395-1.424-5.492-1.424-9.29 0-3.886.316-7.298.95-10.237.63-2.937 1.783-5.377 3.457-7.322 1.672-1.943 3.91-3.39 6.713-4.34 2.8-.95 6.373-1.424 10.713-1.424.99 0 1.98.047 2.98.136.99.09 2.21.182 3.66.27v-7.186c0-2.35-.5-4.293-1.49-5.83-1-1.537-2.81-2.306-5.43-2.306-1.81 0-3.46.59-4.95 1.763-1.49 1.17-2.47 2.89-2.92 5.15h-13.42c.45-6.24 2.53-11.21 6.24-14.92 1.8-1.81 3.97-3.23 6.51-4.27 2.53-1.04 5.37-1.56 8.54-1.56 2.89 0 5.6.45 8.13 1.35 2.53.9 4.72 2.26 6.57 4.07 1.85 1.81 3.32 4.06 4.4 6.78s1.62 5.87 1.62 9.49v47.87H513.7v-7.06zm0-22.51c-1.54-.27-2.803-.407-3.796-.407-2.983 0-5.54.71-7.662 2.11-2.125 1.41-3.187 3.96-3.187 7.66 0 2.63.632 4.75 1.898 6.38 1.265 1.63 3.027 2.44 5.288 2.44 2.35 0 4.18-.76 5.492-2.3 1.31-1.53 1.967-3.7 1.967-6.51v-9.36zm24.002-39.19h13.832v6.238c1.716-1.987 3.48-3.662 5.288-5.018 1.808-1.356 4.43-2.034 7.865-2.034 5.69 0 9.71 2.17 12.06 6.51.81 1.537 1.4 3.436 1.76 5.694.36 2.26.54 5.29.54 9.085v26.17c0 4.975-.14 8.636-.41 10.985-.27 2.352-.86 4.25-1.77 5.695-1.18 1.81-2.69 3.3-4.55 4.475-1.86 1.174-4.46 1.764-7.8 1.764-2.71 0-5.13-.61-7.26-1.83-2.13-1.22-3.96-2.96-5.5-5.222h-.27v34.036H537.7V42.648zm27.527 22.374c0-2.8-.54-5.062-1.62-6.78-1.08-1.716-2.8-2.576-5.15-2.576-2.08 0-3.75.792-5.01 2.373-1.27 1.58-1.9 3.64-1.9 6.17v26.71c0 2.17.66 3.95 1.97 5.35 1.31 1.4 2.96 2.1 4.95 2.1 2.62 0 4.41-.81 5.36-2.44.95-1.63 1.43-3.53 1.43-5.7V65.02zm37.84 17.222V91.6c0 2.17.61 3.844 1.83 5.018 1.22 1.176 2.87 1.763 4.95 1.763 2.62 0 4.36-.76 5.22-2.3.86-1.53 1.38-3.07 1.56-4.61h13.83c0 2.9-.47 5.61-1.42 8.14-.95 2.53-2.33 4.7-4.13 6.51-1.81 1.9-3.98 3.39-6.51 4.48s-5.38 1.63-8.54 1.63c-4.25 0-7.91-.9-10.98-2.71-3.07-1.8-5.42-4.2-7.05-7.18-.99-1.8-1.67-3.88-2.03-6.23-.36-2.35-.54-4.92-.54-7.73V65.7c0-2.8.18-5.377.55-7.728.36-2.35 1.04-4.428 2.03-6.238 1.63-2.983 3.98-5.377 7.05-7.187 3.07-1.808 6.74-2.712 10.99-2.712 3.17 0 6.04.542 8.61 1.627 2.58 1.085 4.75 2.6 6.51 4.543 1.77 1.945 3.12 4.227 4.07 6.848.95 2.623 1.43 5.424 1.43 8.408v18.99h-27.4zm0-10.848h13.56V63.53c0-2.62-.61-4.586-1.83-5.897-1.22-1.31-2.87-1.966-4.95-1.966s-3.73.657-4.95 1.966c-1.22 1.312-1.83 3.277-1.83 5.898v7.87zM150.31 124.96v-6.78h377.242v6.78h-377.24z"/>
    <path d="M561.39 124.96v-6.78h69.086v6.78H561.39z"/>
  </g>
</svg>
